<svg xmlns="http://www.w3.org/2000/svg" viewBox="0 0 64 64" width="64" height="64">
  <!-- Fond blanc avec coins arrondis -->
  <rect width="64" height="64" fill="#ffffff" rx="12"/>
  
  <!-- Texte "ahimè" stylisé (version vectorielle simplifiée) -->
  <!-- Lettre "a" -->
  <path d="M 18 38 Q 18 32, 22 32 Q 26 32, 26 36 Q 26 40, 22 40 Q 20 40, 20 38" 
        fill="#1e2d5f" stroke="none"/>
  <path d="M 20 36 L 20 44" stroke="#1e2d5f" stroke-width="2.5" fill="none" stroke-linecap="round"/>
  
  <!-- Lettre "h" -->
  <path d="M 28 32 L 28 44" stroke="#1e2d5f" stroke-width="2.5" fill="none" stroke-linecap="round"/>
  <path d="M 28 38 Q 28 36, 30 36 Q 32 36, 32 38 L 32 44" stroke="#1e2d5f" stroke-width="2.5" fill="none" stroke-linecap="round"/>
  
  <!-- Lettre "i" -->
  <circle cx="36" cy="34" r="1.5" fill="#1e2d5f"/>
  <path d="M 36 36 L 36 44" stroke="#1e2d5f" stroke-width="2.5" fill="none" stroke-linecap="round"/>
  
  <!-- Lettre "m" -->
  <path d="M 40 32 L 40 44" stroke="#1e2d5f" stroke-width="2.5" fill="none" stroke-linecap="round"/>
  <path d="M 40 38 Q 40 36, 42 36 Q 44 36, 44 38 L 44 44" stroke="#1e2d5f" stroke-width="2.5" fill="none" stroke-linecap="round"/>
  <path d="M 44 38 Q 44 36, 46 36 Q 48 36, 48 38 L 48 44" stroke="#1e2d5f" stroke-width="2.5" fill="none" stroke-linecap="round"/>
  
  <!-- Accent "è" -->
  <path d="M 50 32 L 50 44" stroke="#ff9000" stroke-width="2.5" fill="none" stroke-linecap="round"/>
  <path d="M 48 34 L 50 32 L 52 34" stroke="#ff9000" stroke-width="2" fill="none" stroke-linecap="round"/>
  
  <!-- Points décoratifs -->
  <circle cx="52" cy="16" r="3" fill="#ff9000"/>
  <circle cx="12" cy="52" r="2" fill="#1e2d5f"/>
</svg>
